<svg width="65" height="73" viewBox="0 0 65 73" fill="none" xmlns="http://www.w3.org/2000/svg">
<path d="M64.7386 25.8543H43.31V72.6543H36.1672V51.0543H29.0243V72.6543H21.8815V25.8543H0.452896V18.6543H64.7386V25.8543ZM32.5958 0.654297C34.4902 0.654297 36.307 1.41287 37.6465 2.76313C38.9861 4.11339 39.7386 5.94474 39.7386 7.8543C39.7386 9.76385 38.9861 11.5952 37.6465 12.9455C36.307 14.2957 34.4902 15.0543 32.5958 15.0543C30.7013 15.0543 28.8845 14.2957 27.545 12.9455C26.2054 11.5952 25.4529 9.76385 25.4529 7.8543C25.4529 3.8583 28.6315 0.654297 32.5958 0.654297Z" fill="#1D957F"/>
</svg>
